<svg xmlns="http://www.w3.org/2000/svg" width="250" height="414" fill="none" viewBox="0 0 250 414">
  <g clip-path="url(#a)">
    <path fill="#26324F" d="M56.984 85.009c-1.611.363-3.926.901-6.695 1.625-4.557 1.19-6.836 1.785-8.486 2.527-1.239.565-7.825 3.57-9.008 8.196-1.474 5.726 5.763 12.124 8.24 14.302 29.623 26.144 81.301 32.622 81.301 32.622 9.561 1.191 90.782 10.973 96.233-8.307.918-3.249-.525-6.599-2.071-9.094-2.801-3.445-5.598-6.896-8.399-10.341-2.287-13.149-4.564-26.294-6.851-39.443-5.803-6.982-21.068-23.429-46.856-31.36-30.63-9.43-65.432-1.59-73.422 1.476L56.972 84.99l.01.009.002.01Z"/>
    <path fill="#43597B" d="M82.058 46.899c-.97 1.672 1.022 7.426 3.867 9.405 16.469 15.986 62.104 24.684 72.21 26.515-21.813-10.148-34.223-24.095-31.749-33.73.509-1.972 1.871-4.693 5.863-7.407-4.818-.301-14.666-.61-20.794.01-10.37 1.056-22.816 2.718-29.392 5.206l-.005.001Z"/>
    <path fill="#152035" d="M201.254 77.11c-.312 1.138.306 2.69-.231 3.532-6.83 10.518-32.574 3.816-34.562 3.306 1.823.622 10.688 3.828 14.956 13.003 0 0 .293 14.545-8.631 23.608-.995 1.943-3.638 9.785-9.603 14.935-12.302 10.629-19.231 9.476-27.65 10.247 61.874 4.927 80.536-1.323 83.036-9.758.725-2.447.209-5.431-2.07-9.094l-8.399-10.341c-2.287-13.149-4.564-26.294-6.851-39.443l.011.01-.006-.005Z"/>
    <path fill="#0E1628" d="M205.087 99.231c.052 4.592-.678 10.772-4.923 14.658-4.726 4.322-11.927 4.059-11.848 4.871.074.761 6.441-.347 12.323 1.323 9.391 2.659 15.316 8.401 17.918 11.304a42.806 42.806 0 0 0-1.667-3.59c-2.627-4.975-5.925-8.655-8.81-11.258-.998-5.769-2.006-11.537-3.009-17.311l.01-.001.006.004Z"/>
    <path fill="#152035" d="M56.984 85.007a75.993 75.993 0 0 0 11.092 11.729c8.206 7.007 16.415 10.964 22.365 13.24a149.32 149.32 0 0 1-6.53-1.977c-15.582-5.118-29.11-12.06-39.905-19.65l12.968-3.34.01-.002Zm38.336 25.745c6.373 1.132 76.432 13.104 84.533-7.354.927-2.335 1.167-5.408-.174-9.53 3.412 3.927 4.236 7.7 4.493 9.41.549 3.739-.308 6.695-1.376 10.374a41.576 41.576 0 0 1-3.698 8.798 217.453 217.453 0 0 1-40.355-1.446 217.53 217.53 0 0 1-43.433-10.251l.01-.001Z"/>
    <path fill="#43597B" d="m71.098 99.189 23.965-36.196L80.972 47.22 56.975 85.013s9.682 11.84 14.123 14.181v-.005Zm-2.298 3.035-15.993 18.209S32.89 108.827 32.58 99.127c0 0-1.287-6.105 11.4-10.835 3.3-1.23 24.82 13.937 24.82 13.937v-.005Z"/>
    <path fill="#26324F" d="m71.098 99.189-2.299 3.034s-17.257-7.504-24.793-13.874l12.968-3.34s8.523 10.263 14.124 14.18Z"/>
  </g>
  <defs>
    <clipPath id="a">
      <path fill="#fff" d="M20.92 39.197 219.79 19.91l12.46 128.5-198.867 19.285z"/>
    </clipPath>
  </defs>
</svg>
