<svg width="33" height="32" viewBox="0 0 33 32" fill="none" xmlns="http://www.w3.org/2000/svg">
<path d="M14.625 4.23462C14.6719 4.09399 14.8125 4.00024 15 4.00024C15.1406 4.00024 15.2812 4.09399 15.3281 4.23462L15.9844 6.01587L17.7656 6.67212C17.9062 6.71899 18 6.85962 18 7.00024C18 7.18774 17.9062 7.32837 17.7656 7.37524L15.9844 8.03149L15.3281 9.76587C15.2812 9.90649 15.1406 10.0002 15 10.0002C14.8125 10.0002 14.6719 9.90649 14.625 9.76587L13.9688 8.03149L12.1875 7.37524C12.0469 7.32837 12 7.18774 12 7.00024C12 6.85962 12.0469 6.71899 12.1875 6.67212L13.9688 6.01587L14.625 4.23462ZM23.0156 4.70337C23.9062 3.81274 25.3125 3.81274 26.2031 4.70337L27.7969 6.29712C28.6875 7.18774 28.6875 8.59399 27.7969 9.48462L9.9375 27.344C9.04688 28.2346 7.64062 28.2346 6.75 27.344L5.15625 25.7502C4.26562 24.8596 4.26562 23.4534 5.15625 22.5627L23.0156 4.70337ZM24.6094 6.81274L19.6875 11.7346L20.7656 12.8127L25.6875 7.89087L24.6094 6.81274ZM3.32812 9.53149L6 8.50024L6.98438 5.87524C7.03125 5.64087 7.26562 5.50024 7.5 5.50024C7.6875 5.50024 7.92188 5.64087 7.96875 5.87524L9 8.50024L11.625 9.53149C11.8594 9.57837 12 9.81274 12 10.0002C12 10.2346 11.8594 10.469 11.625 10.5159L9 11.5002L7.96875 14.1721C7.92188 14.3596 7.6875 14.5002 7.5 14.5002C7.26562 14.5002 7.03125 14.3596 6.98438 14.1721L6 11.5002L3.32812 10.5159C3.09375 10.469 3 10.2346 3 10.0002C3 9.81274 3.09375 9.57837 3.32812 9.53149ZM19.8281 21.5315L22.5 20.5002L23.4844 17.8752C23.5312 17.6409 23.7656 17.5002 24 17.5002C24.1875 17.5002 24.4219 17.6409 24.4688 17.8752L25.5 20.5002L28.125 21.5315C28.3594 21.5784 28.5 21.8127 28.5 22.0002C28.5 22.2346 28.3594 22.469 28.125 22.5159L25.5 23.5002L24.4688 26.1721C24.4219 26.3596 24.1875 26.5002 24 26.5002C23.7656 26.5002 23.5312 26.3596 23.4844 26.1721L22.5 23.5002L19.8281 22.5159C19.5938 22.469 19.5 22.2346 19.5 22.0002C19.5 21.8127 19.5938 21.5784 19.8281 21.5315Z" fill="#6A3DA5"/>
</svg>
