<svg width="32" height="32" viewBox="0 0 32 32" fill="none" xmlns="http://www.w3.org/2000/svg">
<path d="M28 17.5002C28 19.1877 26.9688 20.5002 25.75 20.5002C24.2031 20.5002 24.25 19.0002 23.125 19.0002C22.4688 19.0002 22 19.5159 22 20.1721V26.5002C22 27.344 21.2969 28.0002 20.5 28.0002H17.125C16.4688 28.0002 16 27.5315 16 26.8752C16 25.7502 17.5 25.7971 17.5 24.2502C17.5 23.0315 16.1406 22.0002 14.5 22.0002C12.8125 22.0002 11.5 23.0315 11.5 24.2502C11.5 25.7971 13 25.7502 13 26.8752C13 27.5315 12.4844 28.0002 11.8281 28.0002H5.5C4.65625 28.0002 4 27.344 4 26.5002V20.1721C4 19.5159 4.46875 19.0002 5.125 19.0002C6.25 19.0002 6.20312 20.5002 7.75 20.5002C8.96875 20.5002 10 19.1877 10 17.5002C10 15.8596 8.96875 14.5002 7.75 14.5002C6.20312 14.5002 6.25 16.0002 5.125 16.0002C4.46875 16.0002 4 15.5315 4 14.8752V11.5002C4 10.7034 4.65625 10.0471 5.5 10.0471H11.8281C12.4844 10.0002 13 9.53149 13 8.87524C13 7.75024 11.5 7.79712 11.5 6.25024C11.5 5.03149 12.8125 4.04712 14.5 4.04712C16.1406 4.04712 17.5 5.07837 17.5 6.25024C17.5 7.79712 16 7.75024 16 8.87524C16 9.53149 16.4688 10.0002 17.125 10.0002H20.5C21.2969 10.0002 22 10.7034 22 11.5002V14.8284C22 15.4846 22.4688 16.0002 23.125 16.0002C24.25 16.0002 24.2031 14.5002 25.75 14.5002C26.9688 14.5002 28 15.8596 28 17.5002Z" fill="#6A3DA5"/>
</svg>
