<svg width="32" height="32" viewBox="0 0 32 32" fill="none" xmlns="http://www.w3.org/2000/svg">
<path d="M27.9294 11.0752C27.916 10.0654 27.7269 9.0656 27.3708 8.12056C27.0619 7.32343 26.5901 6.59949 25.9857 5.995C25.3812 5.39051 24.6572 4.91876 23.8601 4.6099C22.9272 4.25971 21.9417 4.07035 20.9454 4.0499C19.6628 3.99256 19.2561 3.97656 16.0001 3.97656C12.7441 3.97656 12.3268 3.97656 11.0534 4.0499C10.0576 4.0705 9.07256 4.25985 8.14009 4.6099C7.34284 4.91855 6.61879 5.39022 6.01427 5.99474C5.40975 6.59926 4.93808 7.32331 4.62943 8.12056C4.27854 9.05274 4.08959 10.038 4.07076 11.0339C4.01343 12.3179 3.99609 12.7246 3.99609 15.9806C3.99609 19.2366 3.99609 19.6526 4.07076 20.9272C4.09076 21.9246 4.27876 22.9086 4.62943 23.8432C4.9386 24.6402 5.41062 25.364 6.01534 25.9683C6.62006 26.5725 7.34418 27.044 8.14143 27.3526C9.07134 27.7168 10.0566 27.9197 11.0548 27.9526C12.3388 28.0099 12.7454 28.0272 16.0014 28.0272C19.2574 28.0272 19.6748 28.0272 20.9481 27.9526C21.9443 27.9329 22.9299 27.744 23.8628 27.3939C24.6597 27.0847 25.3834 26.6128 25.9879 26.0084C26.5923 25.4039 27.0642 24.6802 27.3734 23.8832C27.7241 22.9499 27.9121 21.9659 27.9321 20.9672C27.9894 19.6846 28.0068 19.2779 28.0068 16.0206C28.0041 12.7646 28.0041 12.3512 27.9294 11.0752ZM15.9921 22.1379C12.5868 22.1379 9.82809 19.3792 9.82809 15.9739C9.82809 12.5686 12.5868 9.8099 15.9921 9.8099C17.6269 9.8099 19.1947 10.4593 20.3507 11.6153C21.5067 12.7713 22.1561 14.3391 22.1561 15.9739C22.1561 17.6087 21.5067 19.1765 20.3507 20.3325C19.1947 21.4885 17.6269 22.1379 15.9921 22.1379ZM22.4014 11.0192C22.2126 11.0194 22.0256 10.9823 21.8512 10.9102C21.6767 10.838 21.5182 10.7321 21.3847 10.5986C21.2512 10.4651 21.1453 10.3066 21.0731 10.1321C21.001 9.95768 20.9639 9.7707 20.9641 9.5819C20.9641 9.39323 21.0013 9.20641 21.0735 9.03211C21.1457 8.8578 21.2515 8.69943 21.3849 8.56602C21.5183 8.43261 21.6767 8.32679 21.851 8.25459C22.0253 8.18239 22.2121 8.14523 22.4008 8.14523C22.5894 8.14523 22.7762 8.18239 22.9506 8.25459C23.1249 8.32679 23.2832 8.43261 23.4166 8.56602C23.55 8.69943 23.6559 8.8578 23.7281 9.03211C23.8003 9.20641 23.8374 9.39323 23.8374 9.5819C23.8374 10.3766 23.1948 11.0192 22.4014 11.0192Z" fill="#9A4292"/>
<path d="M15.9923 19.9768C18.2036 19.9768 19.9963 18.1841 19.9963 15.9728C19.9963 13.7614 18.2036 11.9688 15.9923 11.9688C13.7809 11.9688 11.9883 13.7614 11.9883 15.9728C11.9883 18.1841 13.7809 19.9768 15.9923 19.9768Z" fill="#9A4292"/>
</svg>
