<svg width="191" height="57" viewBox="0 0 191 57" fill="none" xmlns="http://www.w3.org/2000/svg">
<path d="M183.425 56.4108H7.49872C3.62839 56.4108 0.46167 53.239 0.46167 49.3624V7.07189C0.46167 3.19522 3.62832 0.0234375 7.49872 0.0234375H183.425C187.295 0.0234375 190.462 3.19522 190.462 7.07189V49.3623C190.462 53.239 187.295 56.4108 183.425 56.4108" fill="black"/>
<path d="M183.425 0.0234375H7.49872C3.62839 0.0234375 0.46167 3.19522 0.46167 7.07189V49.3623C0.46167 53.239 3.62832 56.4108 7.49872 56.4108H183.425C187.295 56.4108 190.462 53.239 190.462 49.3624V7.07189C190.462 3.19522 187.295 0.0234375 183.425 0.0234375M183.425 1.15115C186.684 1.15115 189.336 3.80761 189.336 7.07189V49.3623C189.336 52.6273 186.684 55.2836 183.425 55.2836H7.49872C4.23976 55.2836 1.58761 52.6272 1.58761 49.3624V7.07189C1.58761 3.80761 4.23969 1.15121 7.49872 1.15121H183.425" fill="#A6A6A6"/>
<path d="M67.1986 14.4648C67.1986 15.6458 66.8494 16.5863 66.1501 17.2879C65.3557 18.1222 64.3204 18.5396 63.0477 18.5396C61.8289 18.5396 60.7926 18.1167 59.9404 17.2698C59.0867 16.4234 58.6606 15.3739 58.6606 14.1217C58.6606 12.8689 59.0867 11.82 59.9404 10.9729C60.7926 10.1267 61.8289 9.70312 63.0477 9.70312C63.6525 9.70312 64.2315 9.8216 64.7812 10.0578C65.3309 10.2947 65.7719 10.609 66.1018 11.0027L65.3595 11.7466C64.8005 11.0776 64.0308 10.7433 63.0477 10.7433C62.1588 10.7433 61.3902 11.0562 60.7415 11.6823C60.0927 12.309 59.7684 13.1217 59.7684 14.1217C59.7684 15.1217 60.0927 15.9344 60.7415 16.5611C61.3902 17.1872 62.1588 17.5 63.0477 17.5C63.9907 17.5 64.7768 17.1855 65.4063 16.5556C65.8148 16.1453 66.0511 15.5749 66.1143 14.8424H63.0476V13.8265H67.1397C67.1792 14.0474 67.1985 14.2594 67.1985 14.4648" fill="white"/>
<path d="M67.1986 14.4651H67.0579C67.0567 15.6193 66.7202 16.5157 66.0505 17.1886L66.0491 17.1898L66.0484 17.1909C65.2793 17.9964 64.2907 18.3973 63.0477 18.399C61.8614 18.3973 60.8684 17.992 60.0393 17.1704C59.212 16.3472 58.803 15.3422 58.8014 14.122C58.803 12.9012 59.212 11.8968 60.0393 11.0741C60.8684 10.252 61.8614 9.84614 63.0477 9.84443C63.6343 9.84443 64.1929 9.9591 64.7256 10.1876C65.2589 10.4178 65.6801 10.7195 65.994 11.094L66.1017 11.0031L66.0023 10.9034L65.26 11.6478L65.3595 11.747L65.4679 11.6568C64.8828 10.9546 64.0616 10.6006 63.0477 10.6027C62.1258 10.6016 61.3149 10.9315 60.6441 11.5814C59.9668 12.2333 59.6266 13.0917 59.6277 14.122C59.6266 15.1523 59.9668 16.0107 60.6441 16.6627C61.3149 17.3125 62.1258 17.6424 63.0477 17.6413C64.0219 17.643 64.8521 17.312 65.5057 16.6556C65.9423 16.2172 66.1897 15.6099 66.2546 14.8549L66.2677 14.7018H63.1884V13.9678H67.1397V13.8268L67.0011 13.8516C67.0396 14.0654 67.0578 14.2685 67.0578 14.4651H67.3393C67.3393 14.2509 67.3195 14.0306 67.2782 13.8016L67.2574 13.6859H62.907V14.9838H66.1143V14.8428L65.9742 14.8307C65.9121 15.54 65.6866 16.0741 65.3068 16.4564C64.702 17.0598 63.9598 17.3576 63.0477 17.3594C62.1918 17.3582 61.4656 17.063 60.8394 16.4601C60.2193 15.8593 59.9108 15.0923 59.9092 14.122C59.9108 13.1517 60.2193 12.3847 60.8394 11.7839C61.4656 11.181 62.1917 10.8858 63.0477 10.8846C63.9994 10.8869 64.7181 11.2019 65.2519 11.8379L65.3508 11.9557L66.2013 11.1028L66.2926 11.0114L66.2095 10.9127C65.8637 10.4998 65.403 10.1721 64.8367 9.92882C64.2694 9.68478 63.6707 9.5625 63.0477 9.5625C61.7965 9.56142 60.7168 10.0019 59.841 10.8737C58.9619 11.7437 58.5188 12.8374 58.52 14.122C58.5188 15.4061 58.9619 16.5003 59.8415 17.3709C60.7168 18.2421 61.7965 18.6821 63.0477 18.6809C64.3507 18.6821 65.4316 18.2486 66.2519 17.3857L66.1501 17.2883L66.2496 17.388C66.9786 16.6583 67.3403 15.6727 67.3394 14.4651H67.1986M73.6858 10.932H69.8402V13.6138H73.3082V14.6302H69.8402V17.312H73.6858V18.351H68.756V9.89296H73.6858V10.932" fill="white"/>
<path d="M73.6859 10.93V10.7891H69.6996V13.7528H73.1676V14.4868L69.6995 14.4872V17.4509H73.5452V18.2081H68.897V10.0319H73.5452V10.93H73.6859V10.7891V10.93H73.8266V9.75H68.6155V18.49H73.8266V17.169H69.981V14.7691H73.4491V13.4709H69.981V11.071H73.8266V10.93H73.6859M78.2617 18.3491H77.1759V10.93H74.8173V9.8909H80.6202V10.93H78.2617V18.349" fill="white"/>
<path d="M78.2616 18.3491V18.2081H77.3165V10.7891H74.958V10.032H80.4794V10.7891H78.1208V18.3491H78.2616V18.2081V18.3491H78.4023V11.071H80.7608V9.75H74.6765V11.0709H77.035V18.49H78.4023V18.349H78.2616M84.8187 18.3491V9.8909H85.9034V18.349H84.8187" fill="white"/>
<path d="M84.8187 18.3491H84.9595V10.0319H85.7626V18.2081H84.8187V18.3491H84.9595H84.8187V18.49H86.0441V9.75H84.678V18.49H84.8187V18.3491M90.7166 18.3491H89.6308V10.93H87.2723V9.8909H93.0751V10.93H90.7166V18.349" fill="white"/>
<path d="M90.7165 18.3508V18.2097H89.7714V10.7907H87.4131V10.0336H92.9343V10.7907H90.5758V18.3507H90.7165V18.2097V18.3507H90.8573V11.0727H93.2158V9.75165H87.1316V11.0726H89.49V18.4916H90.8573V18.3506H90.7165M98.6695 16.5496C99.2945 17.1833 100.059 17.4999 100.964 17.4999C101.868 17.4999 102.633 17.1833 103.257 16.5496C103.883 15.9158 104.196 15.1056 104.196 14.1217C104.196 13.1378 103.883 12.3276 103.257 11.6938C102.633 11.06 101.868 10.7433 100.964 10.7433C100.059 10.7433 99.2945 11.06 98.6695 11.6938C98.0455 12.3276 97.7322 13.1377 97.7322 14.1217C97.7322 15.1056 98.0455 15.9158 98.6695 16.5496ZM104.06 17.2577C103.23 18.1127 102.197 18.5396 100.964 18.5396C99.7289 18.5396 98.6969 18.1127 97.8685 17.2577C97.0378 16.4035 96.6244 15.358 96.6244 14.1217C96.6244 12.8854 97.0378 11.8396 97.8685 10.9857C98.697 10.1304 99.7289 9.70312 100.964 9.70312C102.191 9.70312 103.22 10.1327 104.055 10.9912C104.887 11.8496 105.304 12.8931 105.304 14.1217C105.304 15.358 104.888 16.4035 104.06 17.2577Z" fill="white"/>
<path d="M98.6697 16.5499L98.5696 16.649C99.2179 17.3082 100.027 17.643 100.964 17.6413C101.901 17.643 102.711 17.3082 103.358 16.649C104.01 15.9893 104.338 15.1357 104.337 14.122C104.338 13.1083 104.01 12.2548 103.358 11.595C102.711 10.9358 101.901 10.6011 100.964 10.6027C100.027 10.6011 99.2179 10.9358 98.5696 11.595C97.9187 12.2548 97.5899 13.1083 97.5916 14.122C97.5899 15.1357 97.9187 15.9893 98.5696 16.649L98.6697 16.5499L98.7699 16.4508C98.1728 15.8423 97.8743 15.0768 97.8731 14.122C97.8743 13.1673 98.1728 12.4018 98.7698 11.7932C99.3723 11.1848 100.092 10.8864 100.964 10.8847C101.835 10.8864 102.557 11.1848 103.158 11.7932C103.756 12.4018 104.054 13.1673 104.055 14.122C104.054 15.0768 103.756 15.8423 103.158 16.4508C102.557 17.0593 101.835 17.3577 100.964 17.3593C100.092 17.3577 99.3723 17.0593 98.7698 16.4508L98.6697 16.5499ZM104.06 17.258L103.96 17.16C103.153 17.9882 102.166 18.3974 100.964 18.399C99.7616 18.3973 98.7747 17.9882 97.9692 17.16L97.9654 17.1556L97.9692 17.16C97.1639 16.329 96.7665 15.3269 96.7654 14.122C96.7665 12.9171 97.1639 11.915 97.9692 11.084C98.7747 10.2558 99.7615 9.84614 100.964 9.8445C102.158 9.84614 103.143 10.2575 103.954 11.09C104.762 11.9249 105.162 12.9254 105.164 14.122C105.162 15.3269 104.763 16.329 103.96 17.16L104.06 17.258L104.161 17.3559C105.015 16.4783 105.446 15.3896 105.445 14.122C105.446 12.8616 105.013 11.7752 104.156 10.8936C103.298 10.0085 102.224 9.56098 100.964 9.5625C99.6973 9.56098 98.6198 10.0064 97.7676 10.8881V10.8874C96.9127 11.7657 96.4827 12.8544 96.4839 14.122C96.4827 15.3896 96.9127 16.4783 97.7676 17.3565L97.7714 17.3605L97.7676 17.3559C98.6198 18.2376 99.6973 18.6821 100.964 18.6809C102.23 18.6821 103.308 18.2376 104.161 17.3559L104.06 17.258V17.258ZM106.827 18.3511V9.8929H108.148L112.252 16.4727H112.299L112.252 14.8427V9.8929H113.338V18.351H112.205L107.911 11.4523H107.865L107.911 13.0829V18.351H106.827" fill="white"/>
<path d="M106.827 18.3491H106.968V10.0319H108.069L112.173 16.6117H112.443L112.392 14.8387V10.032H113.197V18.2081H112.283L107.989 11.3094H107.72L107.77 13.0832V18.2081H106.827V18.3491H106.968H106.827V18.49H108.052V13.0787L108.005 11.4466L107.864 11.4504V11.5913H107.911V11.4504L107.792 11.5253L112.127 18.49H113.478V9.75H112.111V14.8424L112.158 16.4746L112.298 16.4708V16.3298H112.252V16.4708L112.371 16.396L108.226 9.75H106.686V18.49H106.827V18.3491M150.964 42.3137H153.59V24.691H150.964L150.964 42.3137ZM174.618 31.0391L171.608 38.6794H171.518L168.393 31.039H165.565L170.25 41.7178L167.579 47.6578H170.319L177.539 31.039L174.618 31.0391ZM159.725 40.3121C158.864 40.3121 157.665 39.8814 157.665 38.8154C157.665 37.4552 159.159 36.9338 160.449 36.9338C161.604 36.9338 162.146 37.1832 162.848 37.5236C162.644 39.1557 161.241 40.3121 159.725 40.3121V40.3121ZM160.042 30.6535C158.141 30.6535 156.172 31.4927 155.357 33.3518L157.687 34.3264C158.186 33.3518 159.113 33.034 160.087 33.034C161.445 33.034 162.826 33.8507 162.848 35.3017V35.4829C162.373 35.2108 161.355 34.8027 160.109 34.8027C157.597 34.8027 155.039 36.1854 155.039 38.7702C155.039 41.1282 157.099 42.6474 159.407 42.6474C161.174 42.6474 162.146 41.8539 162.758 40.9244H162.848V42.2845H165.383V35.5279C165.383 32.3997 163.052 30.6535 160.042 30.6535V30.6535ZM143.812 33.1843H140.076V27.1437H143.812C145.775 27.1437 146.89 28.7719 146.89 30.1639C146.89 31.5296 145.775 33.1843 143.812 33.1843ZM143.744 24.691H137.452V42.3137H140.076V35.637H143.744C146.655 35.637 149.516 33.5263 149.516 30.1639C149.516 26.8017 146.655 24.691 143.744 24.691V24.691ZM109.43 40.3154C107.616 40.3154 106.097 38.7939 106.097 36.7041C106.097 34.5925 107.616 33.0478 109.43 33.0478C111.221 33.0478 112.627 34.5924 112.627 36.7041C112.627 38.7939 111.221 40.3154 109.43 40.3154H109.43ZM112.446 32.0259H112.355C111.766 31.322 110.631 30.6861 109.203 30.6861C106.21 30.6861 103.467 33.3204 103.467 36.7041C103.467 40.0654 106.21 42.6772 109.203 42.6772C110.631 42.6772 111.766 42.0411 112.355 41.3148H112.446V42.1777C112.446 44.4718 111.221 45.6981 109.249 45.6981C107.639 45.6981 106.641 44.5395 106.233 43.5631L103.943 44.5169C104.6 46.1066 106.346 48.0599 109.249 48.0599C112.332 48.0599 114.94 46.2426 114.94 41.8143V31.0495H112.446V32.0259ZM116.754 42.3137H119.384V24.6903H116.754V42.3137ZM123.261 36.4999C123.193 34.1832 125.052 33.0026 126.39 33.0026C127.434 33.0026 128.318 33.5246 128.612 34.2747L123.261 36.4999ZM131.424 34.5015C130.925 33.1612 129.405 30.6861 126.299 30.6861C123.216 30.6861 120.654 33.1161 120.654 36.6816C120.654 40.0429 123.193 42.6772 126.594 42.6772C129.338 42.6772 130.925 40.9965 131.583 40.0201L129.542 38.6572C128.862 39.6567 127.932 40.3154 126.594 40.3154C125.256 40.3154 124.304 39.702 123.692 38.4987L131.695 35.1827L131.424 34.5015ZM67.6566 32.5257V35.0692H73.7331C73.5517 36.4999 73.0755 37.5445 72.3498 38.2713C71.4659 39.1573 70.0827 40.1337 67.6565 40.1337C63.9153 40.1337 60.9906 37.1132 60.9906 33.366C60.9906 29.6188 63.9153 26.598 67.6566 26.598C69.6747 26.598 71.1481 27.393 72.2366 28.415L74.0278 26.6211C72.5088 25.1673 70.4906 24.0545 67.6566 24.0545C62.5321 24.0545 58.2241 28.2334 58.2241 33.366C58.2241 38.4987 62.5321 42.6772 67.6566 42.6772C70.423 42.6772 72.5088 41.7692 74.1411 40.0654C75.819 38.3848 76.3407 36.023 76.3407 34.1155C76.3407 33.5246 76.2956 32.98 76.2043 32.5257H67.6566ZM83.2491 40.3154C81.4348 40.3154 79.8702 38.8164 79.8702 36.6816C79.8702 34.524 81.4348 33.0478 83.2491 33.0478C85.0627 33.0478 86.6273 34.524 86.6273 36.6816C86.6273 38.8164 85.0627 40.3154 83.2491 40.3154ZM83.2491 30.6861C79.9383 30.6861 77.2401 33.2068 77.2401 36.6816C77.2401 40.1337 79.9383 42.6772 83.2491 42.6772C86.5592 42.6772 89.2575 40.1337 89.2575 36.6816C89.2575 33.2068 86.5592 30.6861 83.2491 30.6861ZM96.3565 40.3154C94.543 40.3154 92.9782 38.8164 92.9782 36.6816C92.9782 34.524 94.543 33.0478 96.3566 33.0478C98.1703 33.0478 99.7349 34.524 99.7349 36.6816C99.7349 38.8164 98.1703 40.3154 96.3566 40.3154H96.3565ZM96.3565 30.6861C93.046 30.6861 90.3483 33.2068 90.3483 36.6816C90.3483 40.1337 93.046 42.6772 96.3566 42.6772C99.6668 42.6772 102.365 40.1337 102.365 36.6816C102.365 33.2068 99.6668 30.6861 96.3566 30.6861H96.3565Z" fill="white"/>
<path d="M15.2516 10.7545C14.7792 11.1813 14.4973 11.8932 14.4973 12.8382V12.6246V43.8083V43.6029C14.4973 44.4757 14.7391 45.1496 15.1487 45.5837L15.2532 45.6839V45.6843C15.5847 45.9839 16.0097 46.143 16.4968 46.1425C16.9728 46.1425 17.5084 45.9905 18.0736 45.6696L38.5024 34.0435L45.5195 30.0496C46.4107 29.5425 46.911 28.8883 46.9947 28.2219V28.2192C46.911 27.5513 46.4107 26.8976 45.5196 26.3905L38.5018 22.397L18.0736 10.771C17.5072 10.4494 16.9713 10.2969 16.4941 10.2969C16.0075 10.2969 15.583 10.4555 15.2517 10.7545H15.2516Z" fill="#00C1FF"/>
<path d="M15.2533 45.6797L15.1487 45.5795C14.7391 45.1455 14.4973 44.4715 14.4973 43.5987V43.8041V12.6281V12.834C14.4973 11.889 14.7792 11.1771 15.2516 10.7503L32.6891 28.2156L15.2533 45.6797Z" fill="url(#paint0_linear_1809_929)"/>
<path d="M38.5023 34.0391L32.689 28.2154L38.5017 22.3927L45.5195 26.386C46.4106 26.8932 46.9109 27.5469 46.9946 28.2148V28.2175C46.9109 28.8838 46.4106 29.5381 45.5195 30.0451L38.5023 34.039" fill="url(#paint1_linear_1809_929)"/>
<path d="M16.4969 46.1406C16.0099 46.1411 15.5848 45.9819 15.2534 45.6824V45.6819L32.6892 28.2178L38.5025 34.0415L18.0736 45.6676C17.5085 45.9886 16.9729 46.1406 16.4969 46.1406Z" fill="url(#paint2_linear_1809_929)"/>
<path d="M32.6891 28.2188L15.2515 10.7535C15.5829 10.4544 16.0074 10.2959 16.4939 10.2959C16.9712 10.2959 17.5071 10.4484 18.0735 10.7699L38.5018 22.396L32.689 28.2188" fill="url(#paint3_linear_1809_929)"/>
<path d="M16.4973 46.3438C16.0102 46.3438 15.5846 46.1846 15.2532 45.8851L15.2526 45.8856C15.2512 45.8842 15.2498 45.8829 15.2482 45.8818L15.1576 45.7931C15.1547 45.7903 15.152 45.7871 15.1487 45.7838L15.2532 45.6791C15.5847 45.9786 16.0097 46.1378 16.4969 46.1372C16.9728 46.1372 17.5083 45.9853 18.0735 45.6643L38.5023 34.0382L38.6332 34.1693L38.5007 34.2447L18.0734 45.8702C17.5584 46.1626 17.0685 46.3151 16.6259 46.3405C16.5831 46.3426 16.5402 46.3437 16.4973 46.3437" fill="url(#paint4_linear_1809_929)"/>
<path d="M15.1487 45.7891C14.7391 45.3551 14.4973 44.6816 14.4973 43.8083V43.6029C14.4973 44.4757 14.7391 45.1496 15.1487 45.5837L15.2532 45.6839L15.1487 45.7891" fill="url(#paint5_linear_1809_929)"/>
<path d="M38.6333 34.1718L38.5024 34.0407L45.5196 30.0468C46.4108 29.5398 46.9111 28.8855 46.9947 28.2191C46.9947 28.4637 46.9403 28.7082 46.832 28.9461C46.6137 29.4257 46.1762 29.8789 45.5197 30.2528L38.6333 34.1719" fill="url(#paint6_linear_1809_929)"/>
<path d="M46.9946 28.2188C46.911 27.5508 46.4106 26.8972 45.5195 26.39L38.5017 22.3966L38.6326 22.2654H38.6332L45.5195 26.1846C46.502 26.744 46.994 27.4813 46.9946 28.2188" fill="url(#paint7_linear_1809_929)"/>
<path d="M14.4973 12.8359V12.6205C14.4973 12.5429 14.4994 12.4669 14.5034 12.3932V12.3898C14.5034 12.3888 14.5034 12.3877 14.5038 12.3866V12.3783C14.5462 11.6266 14.7792 11.0402 15.1487 10.6487L15.2516 10.7521C14.7792 11.179 14.4973 11.8909 14.4973 12.8359Z" fill="url(#paint8_linear_1809_929)"/>
<path d="M38.5017 22.3984L18.0735 10.7722C17.5072 10.4507 16.9713 10.2982 16.494 10.2982C16.0075 10.2982 15.583 10.4568 15.2516 10.7558L15.1487 10.6523C15.1808 10.6182 15.2142 10.5854 15.2488 10.5538C15.2499 10.5527 15.2516 10.5515 15.2526 10.5504C15.5815 10.2537 16.0014 10.0951 16.4836 10.0923H16.494C16.9713 10.0923 17.5072 10.2448 18.0735 10.5665L38.6332 22.2669L38.6326 22.2673L38.5017 22.3984" fill="url(#paint9_linear_1809_929)"/>
<defs>
<linearGradient id="paint0_linear_1809_929" x1="25.6409" y1="12.2986" x2="10.6137" y2="27.35" gradientUnits="userSpaceOnUse">
<stop stop-color="#00A0FF"/>
<stop offset="0.00657" stop-color="#00A1FF"/>
<stop offset="0.2601" stop-color="#00BEFF"/>
<stop offset="0.5122" stop-color="#00D2FF"/>
<stop offset="0.7604" stop-color="#00DFFF"/>
<stop offset="1" stop-color="#00E3FF"/>
</linearGradient>
<linearGradient id="paint1_linear_1809_929" x1="48.0804" y1="28.1147" x2="14.0253" y2="28.1147" gradientUnits="userSpaceOnUse">
<stop stop-color="#FFE000"/>
<stop offset="0.4087" stop-color="#FFBD00"/>
<stop offset="0.7754" stop-color="#FFA500"/>
<stop offset="1" stop-color="#FF9C00"/>
</linearGradient>
<linearGradient id="paint2_linear_1809_929" x1="35.4162" y1="33.7547" x2="9.95139" y2="59.0742" gradientUnits="userSpaceOnUse">
<stop stop-color="#FF3A44"/>
<stop offset="1" stop-color="#C31162"/>
</linearGradient>
<linearGradient id="paint3_linear_1809_929" x1="10.7573" y1="8.16417" x2="22.1064" y2="19.4659" gradientUnits="userSpaceOnUse">
<stop stop-color="#32A071"/>
<stop offset="0.0685" stop-color="#2DA771"/>
<stop offset="0.4762" stop-color="#15CF74"/>
<stop offset="0.8009" stop-color="#06E775"/>
<stop offset="1" stop-color="#00F076"/>
</linearGradient>
<linearGradient id="paint4_linear_1809_929" x1="35.4033" y1="37.7911" x2="15.0099" y2="58.2175" gradientUnits="userSpaceOnUse">
<stop stop-color="#CC2E36"/>
<stop offset="1" stop-color="#9C0E4E"/>
</linearGradient>
<linearGradient id="paint5_linear_1809_929" x1="16.8203" y1="12.3028" x2="3.58147" y2="25.5631" gradientUnits="userSpaceOnUse">
<stop stop-color="#008DE0"/>
<stop offset="0.00657" stop-color="#008DE0"/>
<stop offset="0.2601" stop-color="#00A7E0"/>
<stop offset="0.5122" stop-color="#00B8E0"/>
<stop offset="0.7604" stop-color="#00C4E0"/>
<stop offset="1" stop-color="#00C7E0"/>
</linearGradient>
<linearGradient id="paint6_linear_1809_929" x1="48.0806" y1="28.2179" x2="14.0255" y2="28.2179" gradientUnits="userSpaceOnUse">
<stop stop-color="#E0C500"/>
<stop offset="0.4087" stop-color="#E0A600"/>
<stop offset="0.7754" stop-color="#E09100"/>
<stop offset="1" stop-color="#E08900"/>
</linearGradient>
<linearGradient id="paint7_linear_1809_929" x1="48.0804" y1="28.2201" x2="14.0254" y2="28.2201" gradientUnits="userSpaceOnUse">
<stop stop-color="#FFE840"/>
<stop offset="0.4087" stop-color="#FFCE40"/>
<stop offset="0.7754" stop-color="#FFBC40"/>
<stop offset="1" stop-color="#FFB540"/>
</linearGradient>
<linearGradient id="paint8_linear_1809_929" x1="16.8059" y1="12.3245" x2="4.0546" y2="24.5431" gradientUnits="userSpaceOnUse">
<stop stop-color="#40B8FF"/>
<stop offset="0.00657" stop-color="#40B9FF"/>
<stop offset="0.2601" stop-color="#40CEFF"/>
<stop offset="0.5122" stop-color="#40DDFF"/>
<stop offset="0.7604" stop-color="#40E7FF"/>
<stop offset="1" stop-color="#40EAFF"/>
</linearGradient>
<linearGradient id="paint9_linear_1809_929" x1="10.7319" y1="11.8601" x2="19.8385" y2="20.9815" gradientUnits="userSpaceOnUse">
<stop stop-color="#65B895"/>
<stop offset="0.0685" stop-color="#62BD95"/>
<stop offset="0.4762" stop-color="#50DB97"/>
<stop offset="0.8009" stop-color="#44ED98"/>
<stop offset="1" stop-color="#40F498"/>
</linearGradient>
</defs>
</svg>
