<svg width="190" height="57" viewBox="0 0 190 57" fill="none" xmlns="http://www.w3.org/2000/svg">
<path d="M182.963 56.3874H7.03705C3.16672 56.3874 0 53.2156 0 49.339V7.04845C0 3.17178 3.16665 0 7.03705 0H182.963C186.833 0 190 3.17178 190 7.04845V49.3389C190 53.2156 186.833 56.3874 182.963 56.3874Z" fill="black"/>
<path d="M182.963 0H7.03705C3.16672 0 0 3.17178 0 7.04845V49.3389C0 53.2156 3.16665 56.3874 7.03705 56.3874H182.963C186.833 56.3874 190 53.2156 190 49.339V7.04845C190 3.17178 186.833 0 182.963 0M182.963 1.12771C186.223 1.12771 188.874 3.78417 188.874 7.04845V49.3389C188.874 52.6038 186.222 55.2602 182.963 55.2602H7.03705C3.77809 55.2602 1.12594 52.6038 1.12594 49.339V7.04845C1.12594 3.78417 3.77802 1.12777 7.03705 1.12777H182.963" fill="#A6A6A6"/>
<path d="M39.3274 27.837C39.3445 26.5118 39.6965 25.2124 40.3507 24.0598C41.0049 22.9072 41.94 21.9387 43.069 21.2446C42.3518 20.2202 41.4055 19.3772 40.3055 18.7825C39.2055 18.1878 37.9819 17.8578 36.732 17.8187C34.0657 17.5387 31.481 19.414 30.1221 19.414C28.7373 19.414 26.6454 17.8464 24.3928 17.8928C22.9358 17.9398 21.5157 18.3635 20.2711 19.1226C19.0264 19.8816 17.9996 20.9501 17.2907 22.2239C14.22 27.5406 16.5105 35.354 19.4521 39.6515C20.9239 41.7559 22.6437 44.1065 24.8944 44.0231C27.0966 43.9318 27.9191 42.6187 30.5777 42.6187C33.2115 42.6187 33.9831 44.0231 36.2794 43.9701C38.6426 43.9318 40.1315 41.8564 41.5516 39.7322C42.609 38.2327 43.4227 36.5755 43.9625 34.822C42.5895 34.2413 41.4178 33.2693 40.5936 32.0271C39.7694 30.785 39.329 29.3277 39.3274 27.837ZM34.9903 14.9923C36.2788 13.4454 36.9136 11.4573 36.7598 9.44997C34.7913 9.65673 32.9728 10.5976 31.6669 12.085C31.0284 12.8117 30.5393 13.6571 30.2278 14.5729C29.9162 15.4887 29.7881 16.4569 29.851 17.4222C30.8356 17.4323 31.8097 17.2189 32.6999 16.798C33.5902 16.3771 34.3733 15.7597 34.9903 14.9923V14.9923ZM67.1665 38.6958H59.6509L57.8461 44.025H54.6626L61.7814 24.308H65.0887L72.2074 44.025H68.9697L67.1665 38.6958ZM60.4293 36.2365H66.3866L63.4498 27.5876H63.3676L60.4293 36.2365ZM87.5811 36.8383C87.5811 41.3053 85.1901 44.1754 81.5821 44.1754C80.668 44.2232 79.759 44.0127 78.9591 43.5679C78.1591 43.1231 77.5006 42.462 77.059 41.6603H76.9907V48.7806H74.04V29.6498H76.8962V32.0408H76.9505C77.4125 31.243 78.0821 30.5854 78.8881 30.1379C79.6941 29.6904 80.6063 29.4697 81.5278 29.4994C85.1761 29.4994 87.5811 32.3835 87.5811 36.8381V36.8383ZM84.5482 36.8383C84.5482 33.9279 83.0442 32.0145 80.7494 32.0145C78.4948 32.0145 76.9785 33.9681 76.9785 36.8381C76.9785 39.7347 78.4948 41.6745 80.7494 41.6745C83.0442 41.6745 84.5482 39.775 84.5482 36.8381V36.8383ZM103.403 36.8383C103.403 41.3053 101.012 44.1754 97.4039 44.1754C96.4899 44.2232 95.5809 44.0126 94.781 43.5678C93.9811 43.123 93.3226 42.462 92.881 41.6603H92.8127V48.7806H89.862V29.6498H92.7181V32.0408H92.7724C93.2343 31.243 93.9039 30.5854 94.7099 30.1379C95.5159 29.6904 96.4282 29.4697 97.3496 29.4994C100.998 29.4994 103.403 32.3835 103.403 36.8381V36.8383ZM100.37 36.8383C100.37 33.9279 98.8661 32.0145 96.5713 32.0145C94.3166 32.0145 92.8003 33.9681 92.8003 36.8381C92.8003 39.7347 94.3166 41.6745 96.5713 41.6745C98.8661 41.6745 100.37 39.775 100.37 36.8381V36.8383ZM113.86 38.5315C114.079 40.4867 115.978 41.7705 118.574 41.7705C121.061 41.7705 122.85 40.4867 122.85 38.7236C122.85 37.1931 121.771 36.2768 119.216 35.6489L116.66 35.0333C113.04 34.1588 111.359 32.4655 111.359 29.7179C111.359 26.3159 114.324 23.9794 118.533 23.9794C122.7 23.9794 125.556 26.3159 125.652 29.7179H122.673C122.495 27.7503 120.869 26.5625 118.491 26.5625C116.115 26.5625 114.488 27.7643 114.488 29.5132C114.488 30.9073 115.527 31.7276 118.068 32.3554L120.241 32.8889C124.286 33.8455 125.967 35.4706 125.967 38.3544C125.967 42.0433 123.029 44.3537 118.355 44.3537C113.982 44.3537 111.03 42.0975 110.839 38.5313L113.86 38.5315ZM132.335 26.248V29.6498H135.069V31.9865H132.335V39.9114C132.335 41.1426 132.882 41.7162 134.084 41.7162C134.409 41.7106 134.733 41.6878 135.055 41.648V43.9709C134.514 44.0717 133.965 44.1174 133.416 44.1071C130.505 44.1071 129.37 43.0141 129.37 40.2261V31.9865H127.28V29.6498H129.37V26.248H132.335ZM136.652 36.8383C136.652 32.3152 139.316 29.4731 143.47 29.4731C147.638 29.4731 150.289 32.3152 150.289 36.8383C150.289 41.3736 147.651 44.2033 143.47 44.2033C139.289 44.2033 136.652 41.3736 136.652 36.8383ZM147.282 36.8383C147.282 33.7356 145.861 31.9043 143.47 31.9043C141.079 31.9043 139.658 33.7494 139.658 36.8383C139.658 39.9533 141.079 41.7705 143.47 41.7705C145.861 41.7705 147.282 39.9533 147.282 36.8383ZM152.722 29.6498H155.536V32.0966H155.604C155.795 31.3324 156.242 30.657 156.872 30.1841C157.502 29.7111 158.275 29.4693 159.062 29.4994C159.402 29.4982 159.741 29.5351 160.073 29.6095V32.3695C159.644 32.2383 159.196 32.1781 158.747 32.1912C158.319 32.1738 157.891 32.2494 157.495 32.4127C157.098 32.5761 156.741 32.8234 156.449 33.1376C156.157 33.4518 155.936 33.8255 155.802 34.233C155.668 34.6405 155.624 35.0723 155.673 35.4985V44.025H152.722V29.6498ZM173.678 39.8028C173.281 42.4125 170.739 44.2033 167.488 44.2033C163.306 44.2033 160.71 41.4015 160.71 36.9064C160.71 32.3974 163.32 29.4731 167.364 29.4731C171.341 29.4731 173.842 32.2052 173.842 36.5638V37.5747H163.689V37.753C163.642 38.282 163.708 38.815 163.883 39.3165C164.058 39.818 164.338 40.2765 164.703 40.6616C165.069 41.0467 165.513 41.3496 166.004 41.5502C166.496 41.7507 167.025 41.8444 167.556 41.8248C168.253 41.8902 168.953 41.7287 169.551 41.3644C170.149 41.0001 170.614 40.4524 170.876 39.8028H173.678ZM163.703 35.5125H170.89C170.916 35.0368 170.844 34.5608 170.678 34.1142C170.512 33.6677 170.255 33.2604 169.924 32.9178C169.593 32.5752 169.194 32.3047 168.754 32.1234C168.313 31.942 167.84 31.8537 167.364 31.8639C166.883 31.8611 166.407 31.9534 165.962 32.1356C165.518 32.3178 165.113 32.5863 164.773 32.9255C164.433 33.2647 164.163 33.6679 163.979 34.1119C163.796 34.556 163.702 35.032 163.703 35.5125V35.5125ZM60.0595 9.46696C60.6781 9.42256 61.2989 9.51601 61.877 9.74058C62.4551 9.96515 62.9762 10.3152 63.4027 10.7656C63.8291 11.2159 64.1503 11.7553 64.3431 12.3448C64.5358 12.9343 64.5953 13.5593 64.5173 14.1746C64.5173 17.2012 62.8814 18.9411 60.0595 18.9411H56.6373V9.4668L60.0595 9.46696ZM58.1089 17.6011H59.8951C60.3372 17.6275 60.7795 17.555 61.19 17.3889C61.6005 17.2228 61.9688 16.9673 62.268 16.6409C62.5673 16.3145 62.79 15.9255 62.92 15.5022C63.05 15.0788 63.0839 14.6319 63.0194 14.1938C63.0793 13.7574 63.0419 13.3132 62.9099 12.893C62.7779 12.4728 62.5547 12.0869 62.2561 11.7631C61.9575 11.4393 61.591 11.1856 61.1828 11.0201C60.7746 10.8546 60.3349 10.7814 59.8951 10.8058H58.1089V17.6011ZM66.1795 15.363C66.1346 14.8932 66.1883 14.4191 66.3373 13.9712C66.4863 13.5234 66.7272 13.1116 67.0447 12.7623C67.3622 12.413 67.7491 12.1339 68.1808 11.943C68.6124 11.752 69.0792 11.6533 69.5512 11.6533C70.0232 11.6533 70.49 11.752 70.9216 11.943C71.3532 12.1339 71.7402 12.413 72.0576 12.7623C72.3751 13.1116 72.6161 13.5234 72.765 13.9712C72.914 14.4191 72.9678 14.8932 72.9228 15.363C72.9687 15.8334 72.9157 16.3082 72.7672 16.7569C72.6187 17.2056 72.3779 17.6182 72.0603 17.9683C71.7428 18.3184 71.3555 18.5981 70.9234 18.7896C70.4912 18.981 70.0238 19.0799 69.5512 19.0799C69.0785 19.0799 68.6111 18.981 68.179 18.7896C67.7469 18.5981 67.3596 18.3184 67.042 17.9683C66.7245 17.6182 66.4837 17.2056 66.3351 16.7569C66.1866 16.3082 66.1336 15.8334 66.1795 15.363ZM71.4716 15.363C71.4716 13.8132 70.7753 12.9069 69.5536 12.9069C68.327 12.9069 67.6371 13.8132 67.6371 15.363C67.6371 16.9252 68.3272 17.8245 69.5536 17.8245C70.7753 17.8245 71.4716 16.919 71.4716 15.363V15.363ZM81.8867 18.9409H80.4228L78.9452 13.6752H78.8336L77.3622 18.9409H75.9124L73.9417 11.7911H75.3727L76.6536 17.2467H76.759L78.229 11.7911H79.5826L81.0525 17.2467H81.1642L82.4387 11.7911H83.8497L81.8867 18.9409ZM85.5072 11.7913H86.8655V12.927H86.971C87.1498 12.5191 87.4515 12.1771 87.834 11.9487C88.2164 11.7204 88.6606 11.6171 89.1046 11.6532C89.4525 11.627 89.8018 11.6795 90.1266 11.8067C90.4515 11.9338 90.7436 12.1325 90.9812 12.3879C91.2189 12.6432 91.396 12.9488 91.4996 13.282C91.6031 13.6151 91.6304 13.9673 91.5793 14.3124V18.9407H90.1683V14.6668C90.1683 13.5179 89.6689 12.9464 88.6254 12.9464C88.3892 12.9354 88.1535 12.9756 87.9343 13.0643C87.7151 13.1529 87.5176 13.2879 87.3555 13.46C87.1933 13.6321 87.0703 13.8372 86.9949 14.0613C86.9194 14.2854 86.8932 14.5231 86.9182 14.7582V18.9409H85.5072V11.7913ZM93.8276 9.00016H95.2385V18.9409H93.8276V9.00016ZM97.2 15.363C97.1551 14.8931 97.2088 14.419 97.3578 13.971C97.5068 13.5231 97.7478 13.1113 98.0653 12.7619C98.3828 12.4126 98.7698 12.1335 99.2015 11.9425C99.6332 11.7515 100.1 11.6528 100.572 11.6528C101.044 11.6528 101.511 11.7515 101.943 11.9425C102.374 12.1335 102.761 12.4126 103.079 12.7619C103.396 13.1113 103.637 13.5231 103.786 13.971C103.935 14.419 103.989 14.8931 103.944 15.363C103.99 15.8333 103.937 16.308 103.788 16.7566C103.639 17.2051 103.399 17.6176 103.081 17.9675C102.763 18.3174 102.376 18.5971 101.944 18.7884C101.512 18.9798 101.045 19.0786 100.572 19.0786C100.1 19.0786 99.6323 18.9798 99.2002 18.7884C98.7682 18.5971 98.3809 18.3174 98.0633 17.9675C97.7457 17.6176 97.5049 17.2051 97.3562 16.7566C97.2075 16.308 97.1543 15.8333 97.2 15.363V15.363ZM102.492 15.363C102.492 13.8132 101.796 12.9069 100.574 12.9069C99.3475 12.9069 98.6576 13.8132 98.6576 15.363C98.6576 16.9252 99.3477 17.8245 100.574 17.8245C101.796 17.8245 102.492 16.919 102.492 15.363ZM105.43 16.919C105.43 15.632 106.388 14.89 108.089 14.7846L110.025 14.673V14.0558C110.025 13.3006 109.526 12.8743 108.562 12.8743C107.774 12.8743 107.228 13.1635 107.072 13.669H105.706C105.85 12.4409 107.005 11.6533 108.627 11.6533C110.419 11.6533 111.43 12.5457 111.43 14.0558V18.9409H110.072V17.9361H109.96C109.734 18.2966 109.416 18.5904 109.038 18.7876C108.661 18.9848 108.238 19.0784 107.813 19.0587C107.513 19.0899 107.209 19.0579 106.922 18.9647C106.635 18.8715 106.371 18.7192 106.147 18.5176C105.922 18.316 105.742 18.0696 105.619 17.7943C105.495 17.5189 105.431 17.2208 105.43 16.919V16.919ZM110.025 16.308V15.7102L108.28 15.8219C107.295 15.8878 106.848 16.2228 106.848 16.853C106.848 17.4965 107.407 17.8711 108.174 17.8711C108.399 17.8938 108.626 17.8711 108.842 17.8043C109.058 17.7375 109.258 17.6279 109.431 17.482C109.604 17.3362 109.745 17.1571 109.848 16.9554C109.95 16.7538 110.01 16.5336 110.025 16.308V16.308ZM113.285 15.363C113.285 13.1038 114.446 11.6727 116.253 11.6727C116.699 11.6521 117.143 11.7591 117.531 11.9812C117.919 12.2034 118.236 12.5314 118.445 12.927H118.551V9H119.961V18.9407H118.609V17.811H118.498C118.273 18.204 117.945 18.528 117.549 18.7479C117.153 18.9678 116.705 19.0752 116.253 19.0585C114.434 19.0585 113.285 17.6273 113.285 15.3628V15.363ZM114.742 15.363C114.742 16.8793 115.457 17.792 116.652 17.792C117.842 17.792 118.577 16.8663 118.577 15.369C118.577 13.8791 117.834 12.9402 116.652 12.9402C115.465 12.9402 114.742 13.8589 114.742 15.363ZM125.799 15.363C125.754 14.8932 125.808 14.4191 125.957 13.9712C126.106 13.5234 126.347 13.1116 126.665 12.7623C126.982 12.413 127.369 12.1339 127.801 11.943C128.232 11.752 128.699 11.6533 129.171 11.6533C129.643 11.6533 130.11 11.752 130.541 11.943C130.973 12.1339 131.36 12.413 131.677 12.7623C131.995 13.1116 132.236 13.5234 132.385 13.9712C132.534 14.4191 132.588 14.8932 132.543 15.363C132.589 15.8334 132.536 16.3082 132.387 16.7569C132.238 17.2056 131.998 17.6182 131.68 17.9683C131.363 18.3184 130.975 18.5981 130.543 18.7896C130.111 18.981 129.644 19.0799 129.171 19.0799C128.698 19.0799 128.231 18.981 127.799 18.7896C127.367 18.5981 126.979 18.3184 126.662 17.9683C126.344 17.6182 126.103 17.2056 125.955 16.7569C125.806 16.3082 125.753 15.8334 125.799 15.363V15.363ZM131.091 15.363C131.091 13.8132 130.395 12.9069 129.173 12.9069C127.947 12.9069 127.257 13.8132 127.257 15.363C127.257 16.9252 127.947 17.8245 129.173 17.8245C130.395 17.8245 131.091 16.919 131.091 15.363ZM134.436 11.7913H135.794V12.927H135.9C136.079 12.5191 136.38 12.1771 136.763 11.9487C137.145 11.7204 137.589 11.6171 138.033 11.6532C138.381 11.627 138.73 11.6795 139.055 11.8067C139.38 11.9338 139.672 12.1325 139.91 12.3879C140.148 12.6432 140.325 12.9488 140.428 13.282C140.532 13.6151 140.559 13.9673 140.508 14.3124V18.9407H139.097V14.6668C139.097 13.5179 138.598 12.9464 137.554 12.9464C137.318 12.9354 137.082 12.9756 136.863 13.0643C136.644 13.1529 136.446 13.2879 136.284 13.46C136.122 13.6321 135.999 13.8372 135.924 14.0613C135.848 14.2854 135.822 14.5231 135.847 14.7582V18.9409H134.436L134.436 11.7913ZM148.481 10.0113V11.8239H150.03V13.0123H148.481V16.6886C148.481 17.4376 148.79 17.7656 149.492 17.7656C149.672 17.765 149.851 17.7541 150.03 17.7329V18.9083C149.776 18.9537 149.52 18.9778 149.262 18.9804C147.693 18.9804 147.068 18.4284 147.068 17.05V13.0123H145.933V11.8237H147.068V10.0114L148.481 10.0113ZM151.957 9.00016H153.356V12.9402H153.468C153.655 12.5285 153.965 12.1845 154.355 11.9553C154.745 11.7261 155.197 11.6228 155.648 11.6594C155.994 11.6405 156.34 11.6983 156.661 11.8286C156.982 11.9588 157.27 12.1584 157.506 12.413C157.741 12.6676 157.917 12.971 158.021 13.3014C158.126 13.6319 158.156 13.9814 158.11 14.3249V18.9409H156.697V14.673C156.697 13.5309 156.166 12.9526 155.169 12.9526C154.926 12.9327 154.682 12.9661 154.454 13.0503C154.226 13.1346 154.018 13.2677 153.847 13.4403C153.675 13.613 153.544 13.821 153.461 14.0498C153.378 14.2787 153.347 14.5228 153.368 14.7652V18.9409H151.957V9.00016ZM166.337 17.0103C166.146 17.6638 165.73 18.229 165.164 18.6072C164.598 18.9853 163.916 19.1523 163.239 19.0789C162.768 19.0913 162.3 19.0011 161.867 18.8145C161.435 18.6279 161.048 18.3494 160.734 17.9982C160.419 17.6471 160.185 17.2318 160.048 16.7812C159.91 16.3305 159.872 15.8553 159.936 15.3886C159.874 14.9203 159.912 14.4441 160.05 13.9921C160.187 13.5401 160.42 13.1228 160.732 12.7686C161.045 12.4144 161.43 12.1315 161.861 11.9391C162.293 11.7466 162.761 11.6491 163.233 11.6532C165.222 11.6532 166.423 13.0123 166.423 15.2574V15.7498H161.374V15.8289C161.352 16.0912 161.385 16.3553 161.471 16.6042C161.557 16.8531 161.694 17.0813 161.873 17.2741C162.052 17.4669 162.27 17.6202 162.512 17.724C162.754 17.8279 163.015 17.88 163.278 17.8771C163.615 17.9176 163.957 17.8568 164.26 17.7025C164.563 17.5482 164.813 17.3072 164.979 17.0103H166.337ZM161.374 14.7063H164.985C165.003 14.4663 164.97 14.2253 164.889 13.9987C164.808 13.7721 164.681 13.565 164.515 13.3905C164.35 13.2161 164.149 13.0783 163.927 12.9859C163.705 12.8935 163.466 12.8487 163.225 12.8542C162.981 12.8511 162.739 12.8969 162.513 12.9889C162.287 13.0809 162.082 13.2172 161.909 13.3898C161.736 13.5625 161.6 13.7679 161.508 13.994C161.416 14.2201 161.371 14.4623 161.374 14.7063V14.7063Z" fill="white"/>
</svg>
